<svg width="69" height="39" viewBox="0 0 69 39" fill="none" xmlns="http://www.w3.org/2000/svg">
<rect width="69" height="39" rx="19.5" fill="black" fill-opacity="0.81"/>
<path d="M64 19C64 11.268 57.732 5 50 5C42.268 5 36 11.268 36 19C36 26.732 42.268 33 50 33C57.732 33 64 26.732 64 19Z" fill="white"/>
<path fill-rule="evenodd" clip-rule="evenodd" d="M47.1317 9.21977C42.5197 9.15198 38.6875 12.4585 38.6875 16.3581C38.6875 18.6091 39.7726 20.562 41.8732 21.9957C41.8732 21.9957 41.1033 24.4744 41.1143 24.5241C41.1252 24.5739 41.2928 24.6715 41.3511 24.6396C41.4094 24.6077 44.134 23.0224 44.134 23.0224C46.0866 23.6764 47.2776 23.5155 47.481 23.488C47.4951 23.4861 47.5044 23.4849 47.509 23.4845C47.3006 22.8893 47.164 21.9623 47.3195 21.0886C48.1335 16.5162 52.9318 15.0939 55.5616 15.3368C54.8354 12.0347 51.6811 9.28662 47.1317 9.21977ZM43.9261 12.9728C43.3211 12.9728 42.8307 13.4513 42.8307 14.0417C42.8307 14.6321 43.3211 15.1107 43.9261 15.1107C44.5311 15.1107 45.0215 14.6321 45.0215 14.0417C45.0215 13.4513 44.5311 12.9728 43.9261 12.9728ZM50.5575 12.9728C49.9527 12.9728 49.4623 13.4513 49.4623 14.0417C49.4623 14.6321 49.9527 15.1107 50.5575 15.1107C51.1626 15.1107 51.6531 14.6321 51.6531 14.0417C51.6531 13.4513 51.1627 12.9728 50.5575 12.9728Z" fill="#31CE6F"/>
<path fill-rule="evenodd" clip-rule="evenodd" d="M62.3125 21.7843C62.3125 18.4436 59.0011 15.8846 55.1595 15.8846C51.092 15.8846 47.8478 18.5014 47.8478 21.8419C47.8478 25.1887 50.9335 27.9592 55.1642 27.9819C56.0158 27.9865 57.284 27.773 58.1392 27.4244C58.1392 27.4244 60.1837 28.6339 60.2982 28.6249C60.4127 28.616 60.4713 28.5275 60.4758 28.4517C60.4804 28.3758 59.8245 26.488 59.8245 26.488C61.58 25.1467 62.3125 23.6687 62.3125 21.7843ZM52.4823 18.6565C51.9471 18.6565 51.5132 19.0806 51.5132 19.6039C51.5132 20.1269 51.9471 20.5512 52.4823 20.5512C53.0176 20.5512 53.4515 20.1271 53.4515 19.6039C53.4515 19.0806 53.0176 18.6565 52.4823 18.6565ZM57.6646 18.6565C57.1293 18.6565 56.6954 19.0806 56.6954 19.6039C56.6954 20.1269 57.1293 20.5512 57.6646 20.5512C58.1999 20.5512 58.6338 20.1271 58.6338 19.6039C58.6338 19.0806 58.1999 18.6565 57.6646 18.6565Z" fill="#31CE6F"/>
</svg>
