<svg width="69" height="39" viewBox="0 0 69 39" fill="none" xmlns="http://www.w3.org/2000/svg">
<rect width="69" height="39" rx="19.5" fill="black" fill-opacity="0.81"/>
<path d="M64 19C64 11.268 57.732 5 50 5C42.268 5 36 11.268 36 19C36 26.732 42.268 33 50 33C57.732 33 64 26.732 64 19Z" fill="#1275B1"/>
<path d="M43.2474 15.6281H46.3402V25H43.2474V15.6281Z" fill="white"/>
<path d="M51.3196 15.6281H48.2268V25H51.3196C51.3196 25 51.3196 22.0496 51.3196 20.2049C51.3196 19.0976 51.6977 17.9855 53.2062 17.9855C54.911 17.9855 54.9008 19.4345 54.8928 20.5571C54.8824 22.0244 54.9072 23.5219 54.9072 25H58V20.0537C57.9738 16.8954 57.1508 15.4401 54.4433 15.4401C52.8354 15.4401 51.8387 16.1701 51.3196 16.8305V15.6281Z" fill="white"/>
<path d="M46.6186 12.6922C46.6186 13.6267 45.8085 14.3843 44.8093 14.3843C43.81 14.3843 43 13.6267 43 12.6922C43 11.7576 43.81 11 44.8093 11C45.8085 11 46.6186 11.7576 46.6186 12.6922Z" fill="white"/>
</svg>
