<svg width="69" height="39" viewBox="0 0 69 39" fill="none" xmlns="http://www.w3.org/2000/svg">
<rect width="69" height="39" rx="19.5" fill="black" fill-opacity="0.81"/>
<path d="M64 19C64 26.732 57.732 33 50 33C47.0509 33 44.3147 32.0881 42.0581 30.531L40.0833 28.9167L38.5267 27.0248C36.9344 24.7525 36 21.9854 36 19C36 11.268 42.268 5 50 5C57.732 5 64 11.268 64 19Z" fill="url(#paint0_linear_167_390)"/>
<path d="M45.9167 11.4167C45.5284 10.6367 44.9326 10.7057 44.3308 10.7057C43.2553 10.7057 41.5781 11.9941 41.5781 14.3918C41.5781 16.3568 42.444 18.5079 45.3618 21.7256C48.1777 24.831 51.8776 26.4374 54.9492 26.3828C58.0208 26.3281 58.6528 23.6849 58.6528 22.7921C58.6528 22.3965 58.4072 22.1991 58.2382 22.1455C57.1915 21.6432 55.2608 20.7072 54.8216 20.5313C54.3823 20.3554 54.153 20.5933 54.0104 20.7227C53.6121 21.1023 52.8225 22.2211 52.5521 22.4727C52.2818 22.7244 51.8787 22.597 51.7109 22.5019C51.0936 22.2542 49.42 21.5097 48.0861 20.2165C46.4362 18.6172 46.3393 18.067 46.0285 17.5771C45.7799 17.1854 45.9624 16.9449 46.0534 16.8398C46.4089 16.4297 46.8997 15.7965 47.1198 15.4818C47.3399 15.1672 47.1652 14.6893 47.0603 14.3918C46.6094 13.112 46.2273 12.0407 45.9167 11.4167Z" fill="white"/>
<defs>
<linearGradient id="paint0_linear_167_390" x1="62.25" y1="8.5" x2="36" y2="33" gradientUnits="userSpaceOnUse">
<stop stop-color="#5BD066"/>
<stop offset="1" stop-color="#27B43E"/>
</linearGradient>
</defs>
</svg>
