<svg width="69" height="39" viewBox="0 0 69 39" fill="none" xmlns="http://www.w3.org/2000/svg">
<rect width="69" height="39" rx="19.5" fill="black" fill-opacity="0.81"/>
<path d="M34 14.9556C34 11.4708 34 9.7284 34.6782 8.39739C35.2747 7.22661 36.2266 6.27473 37.3974 5.67818C38.7284 5 40.4708 5 43.9556 5H52.0444C55.5292 5 57.2716 5 58.6026 5.67818C59.7734 6.27473 60.7253 7.22661 61.3218 8.39739C62 9.7284 62 11.4708 62 14.9556V23.0444C62 26.5292 62 28.2716 61.3218 29.6026C60.7253 30.7734 59.7734 31.7253 58.6026 32.3218C57.2716 33 55.5292 33 52.0444 33H43.9556C40.4708 33 38.7284 33 37.3974 32.3218C36.2266 31.7253 35.2747 30.7734 34.6782 29.6026C34 28.2716 34 26.5292 34 23.0444V14.9556Z" fill="white"/>
<path d="M54.0515 11.5229L48.0644 16.1954L41.9404 11.5229V11.5242L41.9478 11.5305V18.0732L47.9954 22.8466L54.0515 18.2575V11.5229Z" fill="#EA4335"/>
<path d="M55.6236 10.3864L54.0513 11.5229V18.2575L58.9988 14.459V12.1707C58.9988 12.1707 58.3982 8.90258 55.6236 10.3864Z" fill="#FBBC05"/>
<path d="M54.0513 18.2577V26.9926H57.8433C57.8433 26.9926 58.9223 26.8814 59 25.6514V14.4591L54.0513 18.2577Z" fill="#34A853"/>
<path d="M41.9481 26.9999V18.0731L41.9404 18.0668L41.9481 26.9999Z" fill="#C5221F"/>
<path d="M41.9401 11.5243L40.3765 10.3941C37.6018 8.91026 37 12.1772 37 12.1772V14.4654L41.9401 18.0669V11.5243Z" fill="#C5221F"/>
<path d="M41.9404 11.5242V18.0668L41.9481 18.0731V11.5305L41.9404 11.5242Z" fill="#C5221F"/>
<path d="M37 14.4666V25.6589C37.0765 26.8901 38.1567 27 38.1567 27H41.9488L41.9401 18.0668L37 14.4666Z" fill="#4285F4"/>
</svg>
