<svg width="69" height="39" viewBox="0 0 69 39" fill="none" xmlns="http://www.w3.org/2000/svg">
<rect width="69" height="39" rx="19.5" fill="black" fill-opacity="0.81"/>
<path d="M56 5H40C36.6863 5 34 7.68629 34 11V27C34 30.3137 36.6863 33 40 33H56C59.3137 33 62 30.3137 62 27V11C62 7.68629 59.3137 5 56 5Z" fill="url(#paint0_radial_167_394)"/>
<path d="M56 5H40C36.6863 5 34 7.68629 34 11V27C34 30.3137 36.6863 33 40 33H56C59.3137 33 62 30.3137 62 27V11C62 7.68629 59.3137 5 56 5Z" fill="url(#paint1_radial_167_394)"/>
<path d="M56 5H40C36.6863 5 34 7.68629 34 11V27C34 30.3137 36.6863 33 40 33H56C59.3137 33 62 30.3137 62 27V11C62 7.68629 59.3137 5 56 5Z" fill="url(#paint2_radial_167_394)"/>
<path d="M55 13.5C55 14.3284 54.3284 15 53.5 15C52.6716 15 52 14.3284 52 13.5C52 12.6716 52.6716 12 53.5 12C54.3284 12 55 12.6716 55 13.5Z" fill="white"/>
<path fill-rule="evenodd" clip-rule="evenodd" d="M48 24C50.7614 24 53 21.7614 53 19C53 16.2386 50.7614 14 48 14C45.2386 14 43 16.2386 43 19C43 21.7614 45.2386 24 48 24ZM48 22C49.6569 22 51 20.6569 51 19C51 17.3431 49.6569 16 48 16C46.3431 16 45 17.3431 45 19C45 20.6569 46.3431 22 48 22Z" fill="white"/>
<path fill-rule="evenodd" clip-rule="evenodd" d="M38 18.6C38 15.2397 38 13.5595 38.654 12.2761C39.2292 11.1471 40.1471 10.2292 41.2761 9.65396C42.5595 9 44.2397 9 47.6 9H48.4C51.7603 9 53.4405 9 54.7239 9.65396C55.8529 10.2292 56.7708 11.1471 57.346 12.2761C58 13.5595 58 15.2397 58 18.6V19.4C58 22.7603 58 24.4405 57.346 25.7239C56.7708 26.8529 55.8529 27.7708 54.7239 28.346C53.4405 29 51.7603 29 48.4 29H47.6C44.2397 29 42.5595 29 41.2761 28.346C40.1471 27.7708 39.2292 26.8529 38.654 25.7239C38 24.4405 38 22.7603 38 19.4V18.6ZM47.6 11H48.4C50.1132 11 51.2777 11.0016 52.1779 11.0751C53.0548 11.1467 53.5032 11.2766 53.816 11.436C54.5686 11.8195 55.1805 12.4314 55.564 13.184C55.7234 13.4968 55.8533 13.9452 55.9249 14.8221C55.9984 15.7223 56 16.8868 56 18.6V19.4C56 21.1132 55.9984 22.2777 55.9249 23.1779C55.8533 24.0548 55.7234 24.5032 55.564 24.816C55.1805 25.5686 54.5686 26.1805 53.816 26.564C53.5032 26.7234 53.0548 26.8533 52.1779 26.9249C51.2777 26.9984 50.1132 27 48.4 27H47.6C45.8868 27 44.7223 26.9984 43.8221 26.9249C42.9452 26.8533 42.4968 26.7234 42.184 26.564C41.4314 26.1805 40.8195 25.5686 40.436 24.816C40.2766 24.5032 40.1467 24.0548 40.0751 23.1779C40.0016 22.2777 40 21.1132 40 19.4V18.6C40 16.8868 40.0016 15.7223 40.0751 14.8221C40.1467 13.9452 40.2766 13.4968 40.436 13.184C40.8195 12.4314 41.4314 11.8195 42.184 11.436C42.4968 11.2766 42.9452 11.1467 43.8221 11.0751C44.7223 11.0016 45.8868 11 47.6 11Z" fill="white"/>
<defs>
<radialGradient id="paint0_radial_167_394" cx="0" cy="0" r="1" gradientUnits="userSpaceOnUse" gradientTransform="translate(44 26) rotate(-55.3758) scale(25.5196)">
<stop stop-color="#B13589"/>
<stop offset="0.79309" stop-color="#C62F94"/>
<stop offset="1" stop-color="#8A3AC8"/>
</radialGradient>
<radialGradient id="paint1_radial_167_394" cx="0" cy="0" r="1" gradientUnits="userSpaceOnUse" gradientTransform="translate(43 34) rotate(-65.1363) scale(22.5942)">
<stop stop-color="#E0E8B7"/>
<stop offset="0.444662" stop-color="#FB8A2E"/>
<stop offset="0.71474" stop-color="#E2425C"/>
<stop offset="1" stop-color="#E2425C" stop-opacity="0"/>
</radialGradient>
<radialGradient id="paint2_radial_167_394" cx="0" cy="0" r="1" gradientUnits="userSpaceOnUse" gradientTransform="translate(32.5 6) rotate(-8.1301) scale(38.8909 8.31836)">
<stop offset="0.156701" stop-color="#406ADC"/>
<stop offset="0.467799" stop-color="#6A45BE"/>
<stop offset="1" stop-color="#6A45BE" stop-opacity="0"/>
</radialGradient>
</defs>
</svg>
