<svg width="69" height="39" viewBox="0 0 69 39" fill="none" xmlns="http://www.w3.org/2000/svg">
<rect width="69" height="39" rx="19.5" fill="black" fill-opacity="0.81"/>
<path d="M64 19C64 11.268 57.732 5 50 5C42.268 5 36 11.268 36 19C36 26.732 42.268 33 50 33C57.732 33 64 26.732 64 19Z" fill="white"/>
<path d="M46.2099 28.875C43.6826 28.875 41.3267 28.1399 39.3438 26.8716C41.0273 26.9805 43.9985 26.7196 45.8466 24.9569C43.0665 24.8293 41.8127 22.6971 41.6492 21.7859C41.8854 21.877 43.012 21.9864 43.6479 21.7313C40.4499 20.9294 39.9593 18.1229 40.0683 17.2664C40.668 17.6855 41.6855 17.8313 42.0853 17.7948C39.1053 15.6627 40.1774 12.4553 40.7043 11.7628C42.8428 14.7255 46.0478 16.3895 50.0128 16.482C49.938 16.1542 49.8986 15.8128 49.8986 15.4622C49.8986 12.946 51.9323 10.9062 54.4412 10.9062C55.752 10.9062 56.9331 11.4631 57.7623 12.3538C58.6382 12.1485 59.9565 11.668 60.6009 11.2525C60.2761 12.4188 59.2648 13.3918 58.653 13.7524C58.648 13.7401 58.6581 13.7647 58.653 13.7524C59.1904 13.6711 60.6444 13.3917 61.2188 13.002C60.9347 13.6572 59.8625 14.7467 58.9826 15.3566C59.1463 22.5766 53.6223 28.875 46.2099 28.875Z" fill="#47ACDF"/>
</svg>
