<svg width="69" height="39" viewBox="0 0 69 39" fill="none" xmlns="http://www.w3.org/2000/svg">
<rect width="69" height="39" rx="19.5" fill="black" fill-opacity="0.81"/>
<path d="M64 19C64 11.268 57.732 5 50 5C42.268 5 36 11.268 36 19C36 26.732 42.268 33 50 33C57.732 33 64 26.732 64 19Z" fill="white"/>
<path d="M38.8237 14.0772C38.9281 12.4694 40.2207 11.2094 41.8299 11.1297C44.1601 11.0142 47.4906 10.875 50 10.875C52.5094 10.875 55.8399 11.0142 58.1701 11.1297C59.7793 11.2094 61.0719 12.4694 61.1763 14.0772C61.2764 15.6175 61.375 17.5129 61.375 19C61.375 20.4871 61.2764 22.3825 61.1763 23.9229C61.0719 25.5306 59.7793 26.7906 58.1701 26.8704C55.8399 26.9857 52.5094 27.125 50 27.125C47.4906 27.125 44.1601 26.9857 41.8299 26.8704C40.2207 26.7906 38.9281 25.5306 38.8237 23.9229C38.7236 22.3825 38.625 20.4871 38.625 19C38.625 17.5129 38.7236 15.6175 38.8237 14.0772Z" fill="#FC0D1B"/>
<path d="M47.5625 15.75V22.25L54.0625 19L47.5625 15.75Z" fill="white"/>
</svg>
