<svg width="69" height="39" viewBox="0 0 69 39" fill="none" xmlns="http://www.w3.org/2000/svg">
<rect width="69" height="39" rx="19.5" fill="black" fill-opacity="0.81"/>
<path d="M48 5C40.265 5 34 11.265 34 19C34 25.195 38.0075 30.4275 43.5725 32.2825C44.2725 32.405 44.535 31.985 44.535 31.6175C44.535 31.285 44.5175 30.1825 44.5175 29.01C41 29.6575 40.09 28.1525 39.81 27.365C39.6525 26.9625 38.97 25.72 38.375 25.3875C37.885 25.125 37.185 24.4775 38.3575 24.46C39.46 24.4425 40.2475 25.475 40.51 25.895C41.77 28.0125 43.7825 27.4175 44.5875 27.05C44.71 26.14 45.0775 25.5275 45.48 25.1775C42.365 24.8275 39.11 23.62 39.11 18.265C39.11 16.7425 39.6525 15.4825 40.545 14.5025C40.405 14.1525 39.915 12.7175 40.685 10.7925C40.685 10.7925 41.8575 10.425 44.535 12.2275C45.655 11.9125 46.845 11.755 48.035 11.755C49.225 11.755 50.415 11.9125 51.535 12.2275C54.2125 10.4075 55.385 10.7925 55.385 10.7925C56.155 12.7175 55.665 14.1525 55.525 14.5025C56.4175 15.4825 56.96 16.725 56.96 18.265C56.96 23.6375 53.6875 24.8275 50.5725 25.1775C51.08 25.615 51.5175 26.455 51.5175 27.7675C51.5175 29.64 51.5 31.145 51.5 31.6175C51.5 31.985 51.7625 32.4225 52.4625 32.2825C55.2418 31.3443 57.6568 29.5581 59.3677 27.1753C61.0786 24.7926 61.9993 21.9334 62 19C62 11.265 55.735 5 48 5Z" fill="#F1F1F1"/>
</svg>
